<svg width="168" height="25" viewBox="0 0 168 25" fill="none" xmlns="http://www.w3.org/2000/svg">
<path fill-rule="evenodd" clip-rule="evenodd" d="M0 3.20025e-07L24.4316 0V25H0V3.20025e-07ZM21.9329 2.55682V22.4432H2.49868V2.55682H21.9329Z" fill="currentColor"/>
<path d="M44.6589 14.7008H42.0274C41.645 17.1403 40.0481 18.5443 37.8439 18.5443C34.92 18.5443 33.0082 16.2198 33.0082 12.5143C33.0082 8.85496 34.8525 6.48442 37.6865 6.48442C39.9806 6.48442 41.4876 7.86532 41.9149 10.3509H44.5465C44.0291 6.71457 41.1727 4.34403 37.5965 4.34403C33.3006 4.34403 30.3317 7.98039 30.3317 12.5143C30.3317 17.1864 33.3681 20.6847 37.664 20.6847C41.2402 20.6847 44.1191 18.3371 44.6589 14.7008Z" fill="currentColor"/>
<path fill-rule="evenodd" clip-rule="evenodd" d="M56.7339 14.7008C56.7339 11.5937 54.6422 8.71687 51.2235 8.71687C47.8048 8.71687 45.713 11.5937 45.713 14.7008C45.713 17.8078 47.8048 20.6847 51.2235 20.6847C54.6422 20.6847 56.7339 17.8078 56.7339 14.7008ZM48.2996 14.7008C48.2996 12.2382 49.3567 10.5811 51.2235 10.5811C53.1128 10.5811 54.1699 12.2382 54.1699 14.7008C54.1699 17.1403 53.1128 18.8204 51.2235 18.8204C49.3567 18.8204 48.2996 17.1403 48.2996 14.7008Z" fill="currentColor"/>
<path fill-rule="evenodd" clip-rule="evenodd" d="M66.301 18.0379H66.2335C65.6937 19.626 64.3892 20.6847 62.6798 20.6847C59.621 20.6847 57.9566 17.9229 57.9566 14.7008C57.9566 11.4787 59.6884 8.71687 62.6798 8.71687C64.3892 8.71687 65.6937 9.75255 66.2335 11.3406H66.301V4.57418H68.7076V20.4545H66.301V18.0379ZM63.467 10.5811C61.6002 10.5811 60.5431 12.2382 60.5431 14.7008C60.5431 17.1403 61.6002 18.8204 63.467 18.8204C65.3563 18.8204 66.3909 17.1403 66.3909 14.7008C66.3909 12.2382 65.3563 10.5811 63.467 10.5811Z" fill="currentColor"/>
<path fill-rule="evenodd" clip-rule="evenodd" d="M80.8072 16.8872H78.3556C78.0857 17.8078 77.4559 18.8204 75.994 18.8204C74.2846 18.8204 73.0926 17.6006 72.9801 15.5063H81.0096C81.347 11.5017 79.1428 8.71687 75.7916 8.71687C72.4403 8.71687 70.5285 11.5247 70.5285 14.7008C70.5285 17.8768 72.4853 20.6847 75.8365 20.6847C78.5805 20.6847 80.3349 19.1657 80.8072 16.8872ZM75.7916 10.5811C77.4335 10.5811 78.4006 11.7779 78.558 13.6421H73.0026C73.16 11.7779 74.1497 10.5811 75.7916 10.5811Z" fill="currentColor"/>
<path d="M90.4999 11.3176C93.4238 12.008 94.8857 13.573 94.8857 16.0817C94.8857 18.7284 92.3667 20.6847 88.768 20.6847C84.652 20.6847 82.4254 17.7387 82.178 14.8619H84.8095C84.9669 16.9332 86.6088 18.5443 88.7905 18.5443C90.7698 18.5443 92.2317 17.6697 92.2317 16.1967C92.2317 14.9079 91.2871 14.2174 89.2853 13.7341L87.0362 13.2048C83.9998 12.4683 82.4929 11.0184 82.4929 8.80893C82.4929 6.1392 85.0569 4.34403 88.1832 4.34403C92.1418 4.34403 94.166 6.55347 94.4359 9.29225H91.8044C91.602 7.40502 90.05 6.48442 88.2282 6.48442C86.4514 6.48442 85.1694 7.26693 85.1694 8.62481C85.1694 9.70652 85.9566 10.2128 88.2507 10.7652L90.4999 11.3176Z" fill="currentColor"/>
<path fill-rule="evenodd" clip-rule="evenodd" d="M104.346 18.0379H104.414V20.4545H106.82V8.94702H104.414V11.3406H104.346C103.807 9.75255 102.502 8.71687 100.793 8.71687C97.8012 8.71687 96.0694 11.4787 96.0694 14.7008C96.0694 17.9229 97.7338 20.6847 100.793 20.6847C102.502 20.6847 103.807 19.626 104.346 18.0379ZM98.6559 14.7008C98.6559 12.2382 99.7355 10.5811 101.557 10.5811C103.379 10.5811 104.504 12.2382 104.504 14.7008C104.504 17.1403 103.379 18.8204 101.557 18.8204C99.758 18.8204 98.6559 17.1403 98.6559 14.7008Z" fill="currentColor"/>
<path d="M111.723 13.55V20.4545H109.271V8.94702H111.655V11.2025H111.7C112.173 9.59144 113.342 8.71687 114.984 8.71687C117.458 8.71687 118.673 10.443 118.673 12.9746V20.4545H116.221V13.7111C116.221 11.5707 115.479 10.6041 113.972 10.6041C112.465 10.6041 111.723 11.6628 111.723 13.55Z" fill="currentColor"/>
<path fill-rule="evenodd" clip-rule="evenodd" d="M128.701 18.0379H128.768V20.4545H131.175V4.57418H128.768V11.3406H128.701C128.161 9.75255 126.856 8.71687 125.147 8.71687C122.155 8.71687 120.424 11.4787 120.424 14.7008C120.424 17.9229 122.088 20.6847 125.147 20.6847C126.856 20.6847 128.161 19.626 128.701 18.0379ZM123.01 14.7008C123.01 12.2382 124.067 10.5811 125.934 10.5811C127.823 10.5811 128.858 12.2382 128.858 14.7008C128.858 17.1403 127.823 18.8204 125.934 18.8204C124.067 18.8204 123.01 17.1403 123.01 14.7008Z" fill="currentColor"/>
<path fill-rule="evenodd" clip-rule="evenodd" d="M139.653 8.71687C142.644 8.71687 144.376 11.4787 144.376 14.7008C144.376 17.9229 142.712 20.6847 139.653 20.6847C137.944 20.6847 136.639 19.626 136.099 18.0379H136.032V20.4545H133.625V4.57418H136.032V11.3406H136.099C136.639 9.75255 137.944 8.71687 139.653 8.71687ZM138.866 10.5811C136.977 10.5811 135.942 12.2382 135.942 14.7008C135.942 17.1403 136.977 18.8204 138.866 18.8204C140.733 18.8204 141.79 17.1403 141.79 14.7008C141.79 12.2382 140.733 10.5811 138.866 10.5811Z" fill="currentColor"/>
<path fill-rule="evenodd" clip-rule="evenodd" d="M156.633 14.7008C156.633 11.5937 154.541 8.71687 151.122 8.71687C147.704 8.71687 145.612 11.5937 145.612 14.7008C145.612 17.8078 147.704 20.6847 151.122 20.6847C154.541 20.6847 156.633 17.8078 156.633 14.7008ZM148.199 14.7008C148.199 12.2382 149.256 10.5811 151.122 10.5811C153.012 10.5811 154.069 12.2382 154.069 14.7008C154.069 17.1403 153.012 18.8204 151.122 18.8204C149.256 18.8204 148.199 17.1403 148.199 14.7008Z" fill="currentColor"/>
<path d="M162.122 15.9896L159.13 20.4545H156.364L160.682 14.2635L156.926 8.94702H159.693L162.122 12.5374L164.551 8.94702H167.295L163.561 14.2405L167.857 20.4545H165.113L162.122 15.9896Z" fill="currentColor"/>
</svg>
