<svg width="16" height="15" viewBox="0 0 16 15" fill="none" xmlns="http://www.w3.org/2000/svg">
<path fill-rule="evenodd" clip-rule="evenodd" d="M7.33458 1.02748C7.54469 0.383747 8.45537 0.383739 8.66548 1.02748L10.0242 5.19034H14.4201C15.0989 5.19034 15.3804 6.05969 14.8303 6.45753L11.2767 9.02775L12.6342 13.187C12.8445 13.8314 12.1078 14.3687 11.5586 13.9714L8.00003 11.3977L4.44151 13.9714C3.89229 14.3687 3.15551 13.8314 3.36582 13.187L4.72337 9.02775L1.16977 6.45753C0.619694 6.05968 0.90113 5.19034 1.58 5.19034H5.97586L7.33458 1.02748ZM8.00003 2.21154L6.85897 5.70754C6.76498 5.9955 6.49644 6.19034 6.19352 6.19034H2.50669L5.48667 8.34568C5.73312 8.52393 5.83627 8.84092 5.74189 9.13007L4.60255 12.6208L7.58979 10.4602C7.83462 10.2831 8.16544 10.2831 8.41026 10.4602L11.3975 12.6208L10.2582 9.13007C10.1638 8.84092 10.2669 8.52392 10.5134 8.34568L13.4934 6.19034H9.80654C9.50362 6.19034 9.23507 5.9955 9.14109 5.70754L8.00003 2.21154Z" fill="currentColor"/>
</svg>
